<svg xmlns="http://www.w3.org/2000/svg" width="311.578" height="67.201" viewBox="0 0 311.578 67.201">
            <g id="Group_24735" data-name="" transform="translate(0 0)">
              <g id="" data-name="Group 24731" transform="translate(0 0)">
                <g id="Group_15405" data-name="Group 15405" transform="translate(0 0)">
                  <g id="Group_15414" data-name="Group 15414">
                    <path id="Path_27651" data-name="Path 27651" d="M49.726,0a9.881,9.881,0,0,1,9.946,9.815V49.072a9.881,9.881,0,0,1-9.946,9.815H9.946A9.881,9.881,0,0,1,0,49.072V9.815A9.881,9.881,0,0,1,9.946,0ZM17.4,19.628a5.726,5.726,0,1,0,5.8,5.726A5.764,5.764,0,0,0,17.4,19.628Zm24.862,0a5.726,5.726,0,1,0,5.8,5.726A5.764,5.764,0,0,0,42.267,19.628Z" transform="translate(7.147 8.314)" fill="#47a515" fill-rule="evenodd"></path>
                    <g id="Group_15412" data-name="Group 15412">
                      <path id="Path_27641" data-name="Path 27641" d="M0,135.467v4.261a7.26,7.26,0,0,0,7.4,7.3,7.26,7.26,0,0,0,7.4-7.3v-4.261Z" transform="translate(0 -123.291)" fill="#2e7608"></path>
                      <path id="Path_27642" data-name="Path 27642" d="M102.4,135.467v4.261a7.4,7.4,0,0,0,14.8,0v-4.261Z" transform="translate(-87.597 -123.291)" fill="#a3d9b3"></path>
                      <path id="Path_27643" data-name="Path 27643" d="M204.8,135.467v4.261a7.4,7.4,0,0,0,14.8,0v-4.261Z" transform="translate(-175.193 -123.291)" fill="#2e7608"></path>
                      <path id="Path_27644" data-name="Path 27644" d="M307.2,135.467v4.261a7.4,7.4,0,0,0,14.8,0v-4.261Z" transform="translate(-262.79 -123.291)" fill="#a3d9b3"></path>
                      <path id="Path_27645" data-name="Path 27645" d="M409.6,135.467v4.261a7.4,7.4,0,0,0,14.8,0v-4.261Z" transform="translate(-350.387 -123.291)" fill="#2e7608"></path>
                      <path id="Path_27646" data-name="Path 27646" d="M14.8,65.084l6.545-12.17H12.9a7.282,7.282,0,0,0-2.217.352,4.467,4.467,0,0,0-1.594,1.089L0,65.084Z" transform="translate(0 -52.908)" fill="#47a515"></path>
                      <path id="Path_27647" data-name="Path 27647" d="M117.2,65.13l2.18-12.159H108.91L102.4,65.13Z" transform="translate(-87.597 -52.955)" fill="#c8f0d4"></path>
                      <path id="Path_50041" data-name="Path 50041" d="M104.58,65.13,102.4,52.971h10.473l6.511,12.159Z" transform="translate(-60.142 -52.955)" fill="#c8f0d4"></path>
                      <path id="Path_27648" data-name="Path 27648" d="M219.6,65.058l-1.711-12.175h-11.1L204.8,65.058Z" transform="translate(-175.193 -52.883)" fill="#47a515"></path>
                      <path id="Path_50042" data-name="Path 50042" d="M6.545,65.084,0,52.914H8.447a7.282,7.282,0,0,1,2.217.352,4.467,4.467,0,0,1,1.594,1.089l9.091,10.729Z" transform="translate(52.698 -52.908)" fill="#47a515"></path>
                    </g>
                  </g>
                </g>
              </g>
            </g>
            <g id="Group_25212" data-name="" transform="translate(93.668 3.91)">
              <path id="Path_229302" data-name="Path 229302" d="M-47.9,12.433c6.631,0,10.592-3.211,10.592-8.271,0-3.961-2.443-6.142-7.817-7.172L-47.709-3.5c-2.74-.523-3.874-1.256-3.874-2.583,0-1.483,1.361-2.53,3.682-2.53A4.142,4.142,0,0,1-43.835-6.43,3.179,3.179,0,0,0-40.816-4.7a2.473,2.473,0,0,0,2.687-2.5,3.529,3.529,0,0,0-.262-1.379c-1.221-3.193-4.746-5.043-9.562-5.043-5.793,0-10,3.123-10,7.974,0,3.839,2.617,6.3,7.625,7.242l2.6.489c2.984.576,4.048,1.291,4.048,2.687,0,1.536-1.623,2.652-4.118,2.652-2.024,0-3.717-.663-4.572-2.234a3.129,3.129,0,0,0-2.9-1.693,2.607,2.607,0,0,0-2.774,2.687,3.989,3.989,0,0,0,.332,1.588C-56.661,10.374-53.363,12.433-47.9,12.433Zm16.769-.052c2.024,0,3.193-1.2,3.193-3.333V1.859h10.033V9.048c0,2.129,1.169,3.333,3.193,3.333s3.193-1.2,3.193-3.333V-10.234c0-2.129-1.169-3.333-3.193-3.333s-3.193,1.2-3.193,3.333v6.927H-27.939v-6.927c0-2.129-1.169-3.333-3.193-3.333a2.982,2.982,0,0,0-3.211,3.333V9.048A2.982,2.982,0,0,0-31.132,12.381Zm35.178.052c7.625,0,12.424-4.991,12.424-13.017s-4.8-13.035-12.424-13.035S-8.4-8.611-8.4-.584-3.6,12.433,4.046,12.433Zm0-5.2C.452,7.233-1.869,4.2-1.869-.584c0-4.8,2.338-7.835,5.915-7.835S9.962-5.383,9.962-.584C9.962,4.2,7.623,7.233,4.046,7.233Zm23.068,5.148c2.024,0,3.193-1.012,3.787-3.3l3.49-12.808h.14l3.49,12.808c.611,2.338,1.745,3.3,3.821,3.3,1.989,0,3.089-.977,3.717-3.263L50.375-8.489a10.323,10.323,0,0,0,.349-2.234c0-1.8-1.187-2.844-3.158-2.844-1.675,0-2.67.907-3.054,2.792L41.371,3.83h-.14L37.549-10.932a2.986,2.986,0,0,0-3.089-2.635c-1.693,0-2.652.82-3.106,2.652L27.69,3.83h-.14L24.41-10.775c-.384-1.885-1.379-2.792-3.054-2.792-1.972,0-3.158,1.047-3.158,2.844a9.872,9.872,0,0,0,.349,2.234l4.8,17.554C23.974,11.4,25.073,12.381,27.115,12.381Zm30.1.017c2.024,0,3.193-1.221,3.193-3.333V3.185h3.664L67.807,9.9c1.082,1.954,1.745,2.5,3.3,2.5A2.951,2.951,0,0,0,74.3,9.484a3.714,3.714,0,0,0-.681-2.2L70.529,2.033a7.457,7.457,0,0,0,3.926-6.91c0-5.2-3.385-8.306-9.667-8.306H57.215c-2.024,0-3.211,1.221-3.211,3.35v18.9A2.99,2.99,0,0,0,57.215,12.4ZM60.408-1.2V-8.349h3.734a3.474,3.474,0,0,1,3.769,3.595c0,2.181-1.4,3.56-3.752,3.56ZM89.392,12.433c7.625,0,12.424-4.991,12.424-13.017s-4.8-13.035-12.424-13.035S76.95-8.611,76.95-.584,81.749,12.433,89.392,12.433Zm0-5.2c-3.595,0-5.915-3.036-5.915-7.817,0-4.8,2.338-7.835,5.915-7.835s5.915,3.036,5.915,7.835C95.307,4.2,92.969,7.233,89.392,7.233Zm27.291,5.2c7.625,0,12.424-4.991,12.424-13.017s-4.8-13.035-12.424-13.035S104.242-8.611,104.242-.584,109.04,12.433,116.683,12.433Zm0-5.2c-3.595,0-5.915-3.036-5.915-7.817,0-4.8,2.338-7.835,5.915-7.835S122.6-5.383,122.6-.584C122.6,4.2,120.26,7.233,116.683,7.233Zm18.374,5.148a2.634,2.634,0,0,0,2.809-2.966V-3.725h.14L143.59,10.13a2.418,2.418,0,0,0,2.478,1.728,2.391,2.391,0,0,0,2.443-1.728l5.6-13.855h.122V9.414a2.822,2.822,0,1,0,5.636,0V-9.414c0-2.652-1.5-4.153-4.136-4.153-2.251,0-3.455.907-4.38,3.263l-5.235,13.3h-.14l-5.252-13.3c-.907-2.356-2.111-3.263-4.345-3.263a3.777,3.777,0,0,0-4.153,4.153V9.414A2.639,2.639,0,0,0,135.057,12.381Z" transform="translate(58.039 46.946)"></path>
              <path id="Path_229301" data-name="Path 229301" d="M-29.055,6.875A5.257,5.257,0,0,0-23.9,3.658h.078v.968a2.136,2.136,0,0,0,2.3,2.311,2.113,2.113,0,0,0,2.264-2.311V-13.879a2.156,2.156,0,0,0-2.28-2.389,2.163,2.163,0,0,0-2.28,2.389v6.621h-.094A5.382,5.382,0,0,0-29.023-10.4c-4.2,0-6.855,3.3-6.855,8.6C-35.879,3.564-33.24,6.875-29.055,6.875Zm1.546-3.67c-2.3,0-3.7-1.89-3.7-4.966,0-3.061,1.405-4.982,3.7-4.982,2.264,0,3.717,1.936,3.717,4.982C-23.792,1.3-25.244,3.2-27.509,3.2Zm15.6-15.413a2.374,2.374,0,0,0,2.436-2.358,2.364,2.364,0,0,0-2.436-2.358,2.364,2.364,0,0,0-2.436,2.358A2.374,2.374,0,0,0-11.909-12.208Zm0,19.145a2.151,2.151,0,0,0,2.28-2.374V-8.086a2.163,2.163,0,0,0-2.28-2.389,2.156,2.156,0,0,0-2.28,2.389V4.563A2.144,2.144,0,0,0-11.909,6.937ZM2.831,12.9c5.388.031,8.542-2.592,8.542-6.949V-8.164a2.1,2.1,0,0,0-2.264-2.311,2.128,2.128,0,0,0-2.3,2.311v.921H6.72A5.425,5.425,0,0,0,1.613-10.4c-4.31,0-6.871,3.108-6.871,8.355,0,5.106,2.624,8.292,6.793,8.292a5.413,5.413,0,0,0,5.153-3h.094v2.67c0,2.093-1.468,3.467-3.966,3.451A5.59,5.59,0,0,1-1.12,7.546,2.185,2.185,0,0,0-2.7,6.89,1.688,1.688,0,0,0-4.555,8.561a2.417,2.417,0,0,0,.344,1.265C-3.134,11.591-.589,12.887,2.831,12.9Zm.25-10.041C.817,2.861-.589,1.065-.589-2c0-3.03,1.421-4.935,3.67-4.935,2.28,0,3.748,1.936,3.748,4.95C6.829,1.05,5.361,2.861,3.081,2.861Zm15.553-15.07a2.374,2.374,0,0,0,2.436-2.358,2.364,2.364,0,0,0-2.436-2.358A2.364,2.364,0,0,0,16.2-14.566,2.374,2.374,0,0,0,18.634-12.208Zm0,19.145a2.151,2.151,0,0,0,2.28-2.374V-8.086a2.163,2.163,0,0,0-2.28-2.389,2.156,2.156,0,0,0-2.28,2.389V4.563A2.144,2.144,0,0,0,18.634,6.937ZM27.112,2.33c0,2.951,1.546,4.466,4.591,4.466h.156c1.921,0,3.233-.687,3.233-2.03,0-1.062-.609-1.53-1.733-1.655l-.3-.031c-.984-.078-1.39-.578-1.39-1.765V-6.7H33.28a1.616,1.616,0,0,0,1.749-1.718,1.616,1.616,0,0,0-1.749-1.718H31.672V-11.99a2.151,2.151,0,0,0-2.28-2.374,2.151,2.151,0,0,0-2.28,2.374v1.858h-.874a1.62,1.62,0,0,0-1.765,1.718A1.62,1.62,0,0,0,26.237-6.7h.874Zm16.9,4.544A5.784,5.784,0,0,0,49.13,4.048h.094v.859a2.015,2.015,0,0,0,2.186,2.03,2.081,2.081,0,0,0,2.217-2.3V-4.9c0-3.373-2.8-5.591-7.09-5.591-3.467,0-6.153,1.234-6.934,3.233a2.42,2.42,0,0,0-.234,1.031,1.759,1.759,0,0,0,1.905,1.749,2.3,2.3,0,0,0,1.811-.843,3.66,3.66,0,0,1,3.248-1.765c1.718,0,2.811.906,2.811,2.467V-3.51l-4.216.25C40.744-3.01,38.4-1.246,38.4,1.8,38.4,4.813,40.822,6.875,44.008,6.875Zm1.5-3.3c-1.53,0-2.561-.781-2.561-2.03,0-1.187.968-1.952,2.67-2.077l3.529-.219V.472C49.145,2.284,47.506,3.58,45.507,3.58ZM60.9,6.937a2.143,2.143,0,0,0,2.28-2.374V-13.879a2.156,2.156,0,0,0-2.28-2.389,2.163,2.163,0,0,0-2.28,2.389V4.563A2.151,2.151,0,0,0,60.9,6.937Z" transform="translate(36.18 16.924)"></path>
            </g>
          </svg>