<svg xmlns="http://www.w3.org/2000/svg" xmlns:xlink="http://www.w3.org/1999/xlink" width="902.984" height="473.818" viewBox="0 0 902.984 473.818"><defs><style>.a,.i,.j,.p{opacity:0.1;}.b,.j{fill:none;stroke-miterlimit:10;}.b{stroke:#3f3d56;stroke-width:4px;}.c{fill:#ffeb00;}.d{fill:#ffe800;}.e{fill:url(#a);}.f{fill:#be6f72;}.g{fill:#ff6f61;}.h{fill:#3f3d56;}.j{stroke:#000;}.k{fill:url(#b);}.l{fill:#2f2e41;}.m{fill:#fbbebe;}.n{fill:#e8e8f0;}.o{fill:#f86d70;}.p{fill:#6c63ff;}.q{fill:#ffe500;}.r{fill:#ffe200;}</style><linearGradient id="a" x1="0.5" y1="1" x2="0.5" gradientUnits="objectBoundingBox"><stop offset="0" stop-color="gray" stop-opacity="0.251"/><stop offset="0.54" stop-color="gray" stop-opacity="0.122"/><stop offset="1" stop-color="gray" stop-opacity="0.102"/></linearGradient><linearGradient id="b" x1="0.5" y1="1" x2="0.5" y2="-0.001" xlink:href="#a"/></defs><g transform="translate(-901.016 -443.281)"><ellipse class="a" cx="451.492" cy="7.3" rx="451.492" ry="7.3" transform="translate(901.016 842.562)"/><ellipse class="a" cx="451.492" cy="7.3" rx="451.492" ry="7.3" transform="translate(901.016 902.5)"/><ellipse class="a" cx="451.492" cy="7.3" rx="451.492" ry="7.3" transform="translate(901.016 717.47)"/><ellipse class="a" cx="451.492" cy="7.3" rx="451.492" ry="7.3" transform="translate(901.016 780.012)"/><path class="b" d="M714.334,634.138c2.15-3.988-.288-8.865-3.09-12.416s-6.229-7.25-6.154-11.773c.107-6.5,7.011-10.348,12.523-13.792a61.218,61.218,0,0,0,11.246-9.063,16.585,16.585,0,0,0,3.452-4.63c1.145-2.538,1.112-5.438,1.038-8.239q-.354-13.916-1.376-27.815" transform="translate(734.001 213.359)"/><path class="c" d="M746.117,543.782a10.142,10.142,0,0,0-5.067-8.313l-2.274,4.49.074-5.438a10.142,10.142,0,1,0,7.267,9.26Z" transform="translate(730.346 215.525)"/><path class="c" d="M724.394,626.029a10.142,10.142,0,0,1-19.147-4.119,9.886,9.886,0,0,1,.659-4.119,10.15,10.15,0,0,1,18.949.107l-6.336,5.158,6.97-1.648A10.085,10.085,0,0,1,724.394,626.029Z" transform="translate(733.976 201.925)"/><path class="c" d="M720.14,600.935a10.142,10.142,0,0,1-3.213-19.9l-.058,4.177,2.3-4.548h0a10.145,10.145,0,1,1,.948,20.268Z" transform="translate(733.221 207.328)"/><path class="c" d="M750.02,581.047A10.142,10.142,0,1,1,754.5,562.1l-1.788,4.943,3.65-3.609a10.142,10.142,0,0,1-6.377,17.607Z" transform="translate(727.967 210.829)"/><path class="a" d="M744.745,547.674c-2.34.255-4.614.98-6.97,1.129s-4.943-.42-6.41-2.241a32.527,32.527,0,0,1-1.878-3.3,7.217,7.217,0,0,0-2.554-2.406,10.142,10.142,0,1,0,18.949,6.74C745.512,547.608,745.124,547.632,744.745,547.674Z" transform="translate(730.349 214.336)"/><path class="a" d="M750.03,582.288a10.142,10.142,0,0,1-9.648-14.468,7.506,7.506,0,0,1,2.035,2.043,34.368,34.368,0,0,0,2.01,3.353c1.582,1.854,4.284,2.472,6.731,2.348s4.812-.824,7.25-1.03c.338,0,.676-.049,1.022-.058a10.142,10.142,0,0,1-9.4,7.81Z" transform="translate(727.957 209.588)"/><path class="a" d="M720.141,602.218a10.142,10.142,0,0,1-9.73-14.278,8.239,8.239,0,0,1,2.15,2.06,33.973,33.973,0,0,0,2.2,3.419c1.705,1.9,4.589,2.579,7.176,2.472s4.943-.667,7.415-.824a10.158,10.158,0,0,1-9.211,7.151Z" transform="translate(733.22 206.045)"/><path class="a" d="M724.394,627.409a10.142,10.142,0,0,1-19.147-4.119,9.886,9.886,0,0,1,.659-4.119,10.126,10.126,0,0,1,2.225,1.986c.964,1.17,1.6,2.472,2.719,3.6,2.068,2.035,5.421,2.875,8.4,2.95a42.6,42.6,0,0,0,5.149-.3Z" transform="translate(733.976 200.545)"/><path class="b" d="M104.334,562.138c2.15-3.988-.288-8.865-3.09-12.416s-6.229-7.267-6.154-11.773c.107-6.5,7.011-10.348,12.523-13.792a61.218,61.218,0,0,0,11.246-9.063,16.586,16.586,0,0,0,3.452-4.63c1.145-2.538,1.112-5.438,1.038-8.239q-.363-13.916-1.376-27.815" transform="translate(841.428 226.039)"/><path class="c" d="M136.116,471.782a10.142,10.142,0,0,0-5.067-8.313l-2.274,4.49.074-5.438a10.142,10.142,0,1,0,7.267,9.261Z" transform="translate(837.773 228.205)"/><path class="c" d="M114.394,554.029a10.142,10.142,0,0,1-19.147-4.12,9.887,9.887,0,0,1,.659-4.119,10.15,10.15,0,0,1,18.949.107l-6.336,5.158,6.97-1.648a10.085,10.085,0,0,1-1.1,4.622Z" transform="translate(841.403 214.605)"/><path class="c" d="M110.14,528.935a10.142,10.142,0,0,1-3.213-19.9l-.058,4.177,2.3-4.548h0a10.145,10.145,0,1,1,.947,20.268Z" transform="translate(840.648 220.007)"/><path class="c" d="M140.02,509.047A10.142,10.142,0,1,1,144.5,490.1l-1.788,4.943,3.65-3.609a10.142,10.142,0,0,1-6.377,17.607Z" transform="translate(835.394 223.509)"/><path class="a" d="M134.745,475.674c-2.34.255-4.614.98-6.97,1.129s-4.943-.42-6.41-2.241a32.522,32.522,0,0,1-1.878-3.3,7.218,7.218,0,0,0-2.554-2.406,10.142,10.142,0,1,0,18.949,6.739C135.512,475.608,135.124,475.632,134.745,475.674Z" transform="translate(837.776 227.016)"/><path class="a" d="M140.03,510.288a10.142,10.142,0,0,1-9.648-14.467,7.505,7.505,0,0,1,2.035,2.043,34.374,34.374,0,0,0,2.01,3.353c1.582,1.854,4.284,2.472,6.731,2.348s4.812-.824,7.25-1.03c.338,0,.676-.049,1.022-.058A10.142,10.142,0,0,1,140.03,510.288Z" transform="translate(835.384 222.268)"/><path class="a" d="M110.141,530.218a10.142,10.142,0,0,1-9.73-14.278,8.24,8.24,0,0,1,2.15,2.06,33.971,33.971,0,0,0,2.2,3.419c1.705,1.9,4.589,2.579,7.176,2.472s4.943-.667,7.415-.824A10.159,10.159,0,0,1,110.141,530.218Z" transform="translate(840.647 218.725)"/><path class="a" d="M114.394,555.409a10.142,10.142,0,0,1-19.147-4.12,9.887,9.887,0,0,1,.659-4.119,10.128,10.128,0,0,1,2.225,1.986c.964,1.17,1.6,2.472,2.719,3.6,2.068,2.035,5.421,2.875,8.4,2.95a42.6,42.6,0,0,0,5.149-.3Z" transform="translate(841.403 213.225)"/><path class="c" d="M500.1,471.651a10.142,10.142,0,1,0-.486-8.165l6.336,5.158L498.98,467a10.085,10.085,0,0,0,1.121,4.655Z" transform="translate(770.299 229.127)"/><path class="a" d="M500.34,473.049a10.142,10.142,0,0,0,18.5-8.239,9.738,9.738,0,0,0-2.224,1.986c-.964,1.17-1.648,2.472-2.719,3.6-2.076,2.035-5.421,2.875-8.4,2.949a44.449,44.449,0,0,1-5.149-.3Z" transform="translate(770.059 227.729)"/><circle cx="82.356" cy="82.356" r="82.356" transform="translate(1271.866 682.545)"/><path class="d" d="M638.732,522.4,614.073,547.49a.445.445,0,0,0,0,.643l17.3,18.4a2.977,2.977,0,1,1-4.21,4.21l-17.211-18.332a.47.47,0,0,0-.659,0l-4.194,4.235a18.431,18.431,0,0,1-13.182,5.545,18.834,18.834,0,0,1-13.413-5.7l-4.029-4.12a.47.47,0,0,0-.659,0l-17.17,18.29a2.977,2.977,0,1,1-4.21-4.21l17.236-18.356a.494.494,0,0,0,0-.643l-24.659-25.087a.453.453,0,0,0-.774.321v50.2a7.349,7.349,0,0,0,7.324,7.324H632.2a7.349,7.349,0,0,0,7.324-7.324V522.724a.453.453,0,0,0-.791-.321Z" transform="translate(762.328 217.617)"/><path class="d" d="M592.494,554.541a12.473,12.473,0,0,0,9-3.707L637.4,514.278a7.168,7.168,0,0,0-4.531-1.648H552.181a7.118,7.118,0,0,0-4.531,1.648l35.922,36.556A12.424,12.424,0,0,0,592.494,554.541Z" transform="translate(761.728 219.308)"/><path class="e" d="M832.524,596.233q-1.121-2.735-2.3-5.454a16.187,16.187,0,0,0-2.809-4.853,5.14,5.14,0,0,0-1.648-1.236,7.029,7.029,0,0,0-2.15-.429,17.164,17.164,0,0,0-3.378-.091c-.437-.132-.931-.3-1.417-.5a11.765,11.765,0,0,0,8.766-10.917c0-.165,0-.338,0-.5A11.74,11.74,0,0,0,815.9,560.46a11.535,11.535,0,0,0-6.138,1.755,11.015,11.015,0,0,0-12.358,5.957,13.619,13.619,0,0,0-4.2,10.134c0,.173,0,.354,0,.519.214,6.4,4.35,11.534,9.574,12.054a5.488,5.488,0,0,0-1.516,1.013c-1.6,1.541-1.862,3.988-2.035,6.212l-.124,1.648-2.768.989a.511.511,0,0,0-.124.9l2.645,1.887v.47a2.059,2.059,0,0,0,.049.536,3.781,3.781,0,0,0-1.022,1.458,6.739,6.739,0,0,0-.239,2.669l.1,2.3a18.051,18.051,0,0,0,.7,5.116c.346,1.022,1.846,3.485,2.925,3.5-1,4.531-1.261,14.089-1.261,14.089-.124.124.222.239.824.338.593,4.548,2.529,17.3,5.965,22.912a48.315,48.315,0,0,1,1.294,5.569s.98,12.12,2.274,15.72c1.1,3.065,1.977,10.628,2.216,12.82a1.261,1.261,0,0,0-.914.939c-.651,1.961-4.869,4.943-4.869,4.943a20.4,20.4,0,0,0-3.642,2.332c-1.326,1.195-1.277,2.274,4.614,1.6,11.37-1.31,13.314-4.943,13.314-4.943s-.181-.61-.453-1.4a15.208,15.208,0,0,0-1.491-3.518c-.165-.156-.33.107-.527.519a70.547,70.547,0,0,1-.774-15.909s.321-5.569-1.3-9.5a17.988,17.988,0,0,1,0-6.22c.651-2.62-2.6-15.4-2.6-15.4l-1.862-9.409a2.7,2.7,0,0,1,.519,1.1l.049.189.049.272a.511.511,0,0,0,.132.255c1.269,5.273,4.746,19.88,4.746,22.022,0,2.62,3.246,9.17,3.246,9.17s1.294,10.809,3.568,15.061c1.73,3.238,1.771,7.983,1.689,10.076h0s-.387,2.694-1.038,3.345a7.96,7.96,0,0,0-1.228,2.134l-.074.156s-.972,1.969-.321,2.3a15.958,15.958,0,0,0,7.794.981s1.3-1.648,1.3-2.291a10.314,10.314,0,0,0-.148-1.17c-.239-1.549-.684-3.988-.692-4.012.272-1.055-.824-3.988-.824-3.988l-.33-9.17a42.332,42.332,0,0,0-2.274-18.348s-1.648-5.891-1.294-7.53-.651-19-.651-19l-.1-.247a18.766,18.766,0,0,1,.1-3.683c.321-3.93-.972-12.119-1.3-12.441a10.8,10.8,0,0,1-.461-2.711c.074-.684.3-2.686.6-5.174a93.031,93.031,0,0,0,9.574-.824,1.2,1.2,0,0,0,.824-.33,1.154,1.154,0,0,0,.19-.667C836.2,605.593,834.394,600.8,832.524,596.233Zm-6.533,10.389c.338-2.348.7-4.622,1.063-6.311l.049.148a45.834,45.834,0,0,1,1.565,5.19A17.656,17.656,0,0,1,825.99,606.623Z" transform="translate(718.484 210.884)"/><path class="f" d="M802.37,648.543s1.944,17.491,6.154,24.288a47.142,47.142,0,0,1,1.294,5.5s.972,11.979,2.266,15.539,2.266,13.281,2.266,13.281,4.531,5.174,6.154.972a68.233,68.233,0,0,1-.972-16.84s.321-5.5-1.293-9.392a17.563,17.563,0,0,1,0-6.146c.643-2.6-2.6-15.217-2.6-15.217l-2.587-12.63Z" transform="translate(716.869 195.485)"/><path class="g" d="M823.159,723.881s-1.944,3.559-13.273,4.853c-5.883.667-5.924-.4-4.6-1.582a20.51,20.51,0,0,1,3.625-2.307s4.21-2.908,4.853-4.853,2.917-.321,2.917-.321c3.238,4.853,3.889-1.3,4.531-.651a14.613,14.613,0,0,1,1.491,3.469C822.978,723.271,823.159,723.881,823.159,723.881Z" transform="translate(716.479 182.969)"/><path class="a" d="M827.13,724.93s-2.36,4.32-16.11,5.89c-7.14.81-7.19-.48-5.58-1.92,1.12.71,3.38,1,7.93-.83,6.55-2.68,11.3-4.23,13.21-4.83C826.91,724.19,827.13,724.93,827.13,724.93Z" transform="translate(656 179.729)"/><path class="a" d="M821.337,691.286s.321-5.5-1.294-9.392a17.563,17.563,0,0,1,0-6.146c.643-2.6-2.6-15.217-2.6-15.217l-2.587-12.63-2.241.132,2.562,12.5s3.238,12.622,2.6,15.217a17.563,17.563,0,0,0,0,6.146c1.648,3.889,1.294,9.392,1.294,9.392a68.233,68.233,0,0,0,.972,16.84,2.834,2.834,0,0,1-.939,1.335c1.2.544,2.472.519,3.2-1.335A68.239,68.239,0,0,1,821.337,691.286Z" transform="translate(715.064 195.485)"/><path class="h" d="M815.795,562.42a11.535,11.535,0,0,0-6.113,1.738,11,11,0,0,0-12.358,5.891,13.412,13.412,0,0,0-4.194,10.018c0,6.888,4.638,12.466,10.356,12.466,4.119,0,7.728-2.933,9.384-7.176a11.371,11.371,0,0,0,2.917.379,11.658,11.658,0,0,0,0-23.316Z" transform="translate(718.497 210.539)"/><path class="f" d="M829.461,650.65l.972,2.587s.972,17.162.643,18.785,1.3,7.415,1.3,7.415a41.449,41.449,0,0,1,2.266,18.126l.321,9.063s1.294,3.559.651,4.21-5.528-.577-5.528-.577.651-6.8-1.648-11.007-3.559-14.9-3.559-14.9-3.238-6.476-3.238-9.063-5.182-23.637-5.182-23.637Z" transform="translate(714.387 195.001)"/><path class="h" d="M801.575,645.9s.33-11.658,1.648-15.217a24.165,24.165,0,0,0,1.442-5.166s19.6,3.543,21.223,2.249c0,0,.321,4.531.651,4.853s1.648,8.42,1.294,12.309,0,3.881,0,3.881-13.281,1.944-13.6,0-1.294-1.936-1.294-1.936S800.932,646.513,801.575,645.9Z" transform="translate(717.013 199.427)"/><g class="i" transform="translate(1518.588 827.196)"><path d="M812.266,650.117s-8.19-.222-10.661-.667v.667c-.643.643,11.337.972,11.337.972a.823.823,0,0,1,.445.181C812.95,650.117,812.266,650.117,812.266,650.117Z" transform="translate(-801.58 -631.984)"/><path d="M829.2,633.1c-.33-.321-.651-4.853-.651-4.853a1.393,1.393,0,0,1-.552.2,16.373,16.373,0,0,0,.552,3.683c.214.214,1.648,8.42,1.294,12.309s0,3.881,0,3.881-10.5,1.541-13.05.511a3.918,3.918,0,0,0,.1.461c.321,1.944,13.6,0,13.6,0s-.33,0,0-3.881S829.519,633.432,829.2,633.1Z" transform="translate(-804.258 -628.25)"/><path d="M812.266,650.117s-8.19-.222-10.661-.667v.667c-.643.643,11.337.972,11.337.972a.823.823,0,0,1,.445.181C812.95,650.117,812.266,650.117,812.266,650.117Z" transform="translate(-801.58 -631.984)"/><path d="M829.2,633.1c-.33-.321-.651-4.853-.651-4.853a1.393,1.393,0,0,1-.552.2,16.373,16.373,0,0,0,.552,3.683c.214.214,1.648,8.42,1.294,12.309s0,3.881,0,3.881-10.5,1.541-13.05.511a3.918,3.918,0,0,0,.1.461c.321,1.944,13.6,0,13.6,0s-.33,0,0-3.881S829.519,633.432,829.2,633.1Z" transform="translate(-804.258 -628.25)"/></g><path class="f" d="M817.41,586.468a4.292,4.292,0,0,0,1.236,1.6,2.767,2.767,0,0,0,1.162.5c-.725.42-1.516.733-2.241,1.154a39.837,39.837,0,0,0-3.3,2.472,6.706,6.706,0,0,1-3.782,1.467,4.631,4.631,0,0,0,.527-4.606,4.3,4.3,0,0,1-.577-1.6,2.871,2.871,0,0,1,1.59-2.142c.618-.42,1.252-.824,1.895-1.228.5-.313,1.261-.972,1.895-.948s.709.585.824,1.162A9.133,9.133,0,0,0,817.41,586.468Z" transform="translate(715.448 206.89)"/><path class="a" d="M817.41,586.468a4.292,4.292,0,0,0,1.236,1.6,2.767,2.767,0,0,0,1.162.5c-.725.42-1.516.733-2.241,1.154a39.837,39.837,0,0,0-3.3,2.472,6.706,6.706,0,0,1-3.782,1.467,4.631,4.631,0,0,0,.527-4.606,4.3,4.3,0,0,1-.577-1.6,2.871,2.871,0,0,1,1.59-2.142c.618-.42,1.252-.824,1.895-1.228.5-.313,1.261-.972,1.895-.948s.709.585.824,1.162A9.133,9.133,0,0,0,817.41,586.468Z" transform="translate(715.448 206.89)"/><ellipse class="f" cx="7.448" cy="7.448" rx="7.448" ry="7.448" transform="translate(1532.998 797.569)"/><path class="g" d="M838.895,727.994c0,.651-1.293,2.266-1.293,2.266a16.034,16.034,0,0,1-7.769-.972c-.651-.321.321-2.266.321-2.266l.074-.157a7.862,7.862,0,0,1,1.228-2.109c.643-.643,1.03-3.3,1.03-3.3,2.01-3.3,5.578,1.425,5.578,1.425s.453,2.472.692,3.971A11.3,11.3,0,0,1,838.895,727.994Z" transform="translate(712.072 182.736)"/><path class="a" d="M840.88,729.64c0,.79-1.57,2.75-1.57,2.75a19.46,19.46,0,0,1-9.43-1.18c-.79-.39.39-2.75.39-2.75l.09-.19a19,19,0,0,0,8.56,1.76l1.79-1.79C840.81,728.91,840.88,729.44,840.88,729.64Z" transform="translate(656 179.729)"/><circle class="f" cx="7.283" cy="7.283" r="7.283" transform="translate(1518.267 782.187)"/><path class="f" d="M802.4,599.724c-1.6,1.524-1.862,3.938-2.027,6.138l-.247,3.221a16.255,16.255,0,0,0-.058,2.612c0,.536.132,1.079.181,1.648s.066,1.285.074,1.936v4.762a5.618,5.618,0,0,0,.527,2.859,1.944,1.944,0,0,0,2.472.89,2.818,2.818,0,0,0,1.022-1.582,24.59,24.59,0,0,0,1.648-6.031c.066-.717.074-1.434.14-2.15s.189-1.467.3-2.192c.461-3.032.667-6.1.873-9.153.058-.906.873-4.474-.313-4.869-.577-.19-1.771.4-2.323.6a6.542,6.542,0,0,0-2.266,1.31Z" transform="translate(717.28 204.313)"/><path class="a" d="M802.4,599.724c-1.6,1.524-1.862,3.938-2.027,6.138l-.247,3.221a16.255,16.255,0,0,0-.058,2.612c0,.536.132,1.079.181,1.648s.066,1.285.074,1.936v4.762a5.618,5.618,0,0,0,.527,2.859,1.944,1.944,0,0,0,2.472.89,2.818,2.818,0,0,0,1.022-1.582,24.59,24.59,0,0,0,1.648-6.031c.066-.717.074-1.434.14-2.15s.189-1.467.3-2.192c.461-3.032.667-6.1.873-9.153.058-.906.873-4.474-.313-4.869-.577-.19-1.771.4-2.323.6a6.542,6.542,0,0,0-2.266,1.31Z" transform="translate(717.28 204.313)"/><path class="g" d="M818.278,588.16s-5.5,4.21-8.741,5.182c0,0-1.92,2.192-2.249,2.719s-.989,6.344-1.648,7.646-2.266,4.21,0,7.118c0,0,.643,2.917.321,3.889s-1.5,4.531-.428,4.7,4.317,2.422,7.225,1.78,13.767,2.472,13.767,2.472,1.8-16.684,3.1-19.633l-2.917-.972s-8.091-4.853-3.238-12.3C823.461,590.755,818.913,589.783,818.278,588.16Z" transform="translate(716.499 206.006)"/><path class="h" d="M796.8,611.382l6.69,4.737a.494.494,0,0,0,.585,0l1.813-1.359a.511.511,0,0,0,0-.774l-5.149-4.573a.494.494,0,0,0-.5-.1l-3.3,1.186a.5.5,0,0,0-.132.882Z" transform="translate(717.887 202.286)"/><path class="f" d="M799.39,626.425a17.934,17.934,0,0,1-.7-5.05l-.1-2.282a6.589,6.589,0,0,1,.239-2.636,4.309,4.309,0,0,1,2.776-2.43,9.589,9.589,0,0,1,3.782-.272.972.972,0,0,1,.486.132.906.906,0,0,1,.264.445,2.982,2.982,0,0,1,.148,2.381,2.47,2.47,0,0,1-.758.783c-.9.643-1.944,1.071-2.793,1.771a1.013,1.013,0,0,0-.379.478,1.115,1.115,0,0,0,0,.519,8.3,8.3,0,0,0,.428,1.326,1.311,1.311,0,0,0,.371.56c.156.132.363.181.527.3.354.288,1.1.667,1.055,1.12-.124,1.648-1.112,3.493-1.5,5.125C802.5,631.887,799.868,627.817,799.39,626.425Z" transform="translate(717.542 201.512)"/><g class="i" transform="translate(1527.156 809.548)"><path d="M812.161,628.233h-.181a5.547,5.547,0,0,0,2.117,0h.206a7.416,7.416,0,0,0-2.142,0Z" transform="translate(-811.98 -610.586)"/><path d="M832.15,606.83c-1.162,2.612-2.875,16.758-3.18,19.567,1.137.3,1.887.511,1.887.511s1.78-16.643,3.081-19.592Z" transform="translate(-814.972 -606.83)"/></g><path class="f" d="M825.512,599.711a2.472,2.472,0,0,0,1.063,1.607,14.261,14.261,0,0,1,1.887,1.911,13.537,13.537,0,0,1,1.87,3.749,45.938,45.938,0,0,1,1.557,5.125c-4.12,1.911-8.8,1.821-13.182,3.081a10.521,10.521,0,0,0-4.943,2.925,6.813,6.813,0,0,0-1.821,5.363.7.7,0,0,0,.1.321.692.692,0,0,0,.577.231,4.943,4.943,0,0,0,3.024-1.038,14.39,14.39,0,0,0,2.315-2.274,3.724,3.724,0,0,1,1.648-1.219,26.967,26.967,0,0,1,7.415-.725,93.442,93.442,0,0,0,11.048-.873.89.89,0,0,0,.989-.989c.362-4.861-1.442-9.607-3.3-14.113q-1.112-2.711-2.29-5.4a15.986,15.986,0,0,0-2.8-4.8,4.942,4.942,0,0,0-1.648-1.219,6.967,6.967,0,0,0-2.208-.412,15.657,15.657,0,0,0-3.617-.066,7.708,7.708,0,0,0-.346,1.87,16.2,16.2,0,0,0,1.994,6.319C824.968,599.4,825.323,599.415,825.512,599.711Z" transform="translate(715.189 205.536)"/><path class="j" d="M812.234,606.67a6.038,6.038,0,0,0-.824,3.147,4.238,4.238,0,0,0,.206,1.285,4.169,4.169,0,0,0,2.628,2.472" transform="translate(715.277 202.746)"/><path class="h" d="M814.312,573.265a3.781,3.781,0,0,0-1.195.19c-1.079-1.648-3.617-2.785-6.591-2.785-3.938,0-7.127,2.035-7.127,4.54s3.188,4.531,7.127,4.531a10.025,10.025,0,0,0,4.276-.906,3.881,3.881,0,1,0,3.493-5.57Z" transform="translate(717.392 209.086)"/><path class="a" d="M814.63,580.728a3.873,3.873,0,0,1-3.494-2.2,10.027,10.027,0,0,1-4.276.907c-3.93,0-7.118-2.027-7.118-4.531a2.734,2.734,0,0,1,0-.453,3.074,3.074,0,0,0-.362,1.425c0,2.472,3.188,4.531,7.127,4.531a10.026,10.026,0,0,0,4.276-.906,3.881,3.881,0,0,0,7.308-.964,3.864,3.864,0,0,1-3.46,2.192Z" transform="translate(717.396 208.421)"/><path class="a" d="M797.324,571.961a11,11,0,0,1,12.358-5.891,11.65,11.65,0,0,1,17.73,8.948v-.972a11.65,11.65,0,0,0-17.771-9.887,11,11,0,0,0-12.358,5.891,13.413,13.413,0,0,0-4.194,10.018v.972A13.183,13.183,0,0,1,797.324,571.961Z" transform="translate(718.504 210.539)"/><path class="b" d="M886.414,558.25c2.15-3.979-.288-8.865-3.1-12.416s-6.22-7.242-6.146-11.773c.1-6.5,7-10.34,12.523-13.792a60.889,60.889,0,0,0,11.238-9.063,16.421,16.421,0,0,0,3.46-4.622c1.137-2.546,1.1-5.438,1.038-8.239q-.362-13.924-1.376-27.815" transform="translate(703.696 226.722)"/><path class="c" d="M918.187,467.863a10.126,10.126,0,0,0-5.059-8.3l-2.274,4.49.066-5.438a9.953,9.953,0,0,0-3.337-.4,10.142,10.142,0,1,0,10.6,9.656Z" transform="translate(700.043 228.894)"/><path class="c" d="M896.474,550.1a10.142,10.142,0,1,1,.486-8.173l-6.336,5.158,6.97-1.648a10.084,10.084,0,0,1-1.121,4.663Z" transform="translate(703.671 215.312)"/><path class="c" d="M892.218,525.017A10.142,10.142,0,0,1,889,505.12l-.049,4.177,2.3-4.54h0a10.145,10.145,0,1,1,.947,20.268Z" transform="translate(702.918 220.696)"/><path class="c" d="M922.092,505.137a10.142,10.142,0,1,1,4.49-18.949l-1.8,4.943,3.691-3.543a10.085,10.085,0,0,1,3.3,7,9.789,9.789,0,0,1-.255,2.793A10.142,10.142,0,0,1,922.092,505.137Z" transform="translate(697.662 224.197)"/><path class="a" d="M916.825,471.754c-2.34.264-4.622.989-6.97,1.137s-4.943-.42-6.418-2.249a31.474,31.474,0,0,1-1.87-3.3,7.292,7.292,0,0,0-2.554-2.406,10.142,10.142,0,1,0,18.949,6.731C917.583,471.688,917.2,471.712,916.825,471.754Z" transform="translate(700.045 227.706)"/><path class="a" d="M922.1,506.378a10.15,10.15,0,0,1-9.648-14.468,7.506,7.506,0,0,1,2.043,2.035,32.5,32.5,0,0,0,2.01,3.353c1.574,1.862,4.276,2.472,6.723,2.356s4.812-.824,7.25-1.03c.338,0,.684-.058,1.022-.066a10.142,10.142,0,0,1-9.4,7.819Z" transform="translate(697.653 222.957)"/><path class="a" d="M892.218,526.294A10.134,10.134,0,0,1,882.488,512a8.362,8.362,0,0,1,2.142,2.06c.824,1.112,1.277,2.4,2.2,3.419,1.714,1.911,4.589,2.579,7.184,2.521s4.943-.676,7.415-.865a10.142,10.142,0,0,1-9.211,7.16Z" transform="translate(702.918 219.419)"/><path class="a" d="M896.486,551.5a10.15,10.15,0,0,1-18.5-8.239,9.935,9.935,0,0,1,2.225,1.986c.972,1.178,1.607,2.472,2.719,3.609,2.076,2.035,5.421,2.867,8.4,2.95a44.441,44.441,0,0,0,5.149-.3Z" transform="translate(703.658 213.913)"/><path class="b" d="M1045.414,710.25c2.15-3.979-.288-8.865-3.1-12.416s-6.22-7.242-6.146-11.773c.1-6.5,7-10.34,12.523-13.792a60.888,60.888,0,0,0,11.238-9.063,16.421,16.421,0,0,0,3.46-4.622c1.137-2.546,1.1-5.438,1.038-8.239q-.354-13.924-1.376-27.815" transform="translate(675.695 199.953)"/><path class="c" d="M1077.2,619.864a10.125,10.125,0,0,0-5.059-8.3l-2.274,4.49.066-5.438a9.95,9.95,0,0,0-3.3-.4,10.142,10.142,0,1,0,10.6,9.656Z" transform="translate(672.032 202.125)"/><path class="c" d="M1055.474,702.1a10.142,10.142,0,1,1,.486-8.173l-6.336,5.158,6.97-1.648a10.084,10.084,0,0,1-1.12,4.663Z" transform="translate(675.669 188.543)"/><path class="c" d="M1051.218,677.017a10.142,10.142,0,0,1-3.221-19.9l-.049,4.177,2.3-4.54h0a10.145,10.145,0,1,1,.948,20.268Z" transform="translate(674.917 193.927)"/><path class="c" d="M1081.092,657.137a10.142,10.142,0,1,1,4.49-18.949l-1.8,4.943,3.691-3.543a10.084,10.084,0,0,1,3.3,7,9.8,9.8,0,0,1-.255,2.793A10.142,10.142,0,0,1,1081.092,657.137Z" transform="translate(669.66 197.429)"/><path class="a" d="M1075.825,623.754c-2.34.264-4.622.989-6.97,1.137s-4.943-.42-6.418-2.249a31.431,31.431,0,0,1-1.87-3.3,7.292,7.292,0,0,0-2.554-2.406,10.142,10.142,0,1,0,18.949,6.731C1076.583,623.688,1076.2,623.712,1075.825,623.754Z" transform="translate(672.043 200.938)"/><path class="a" d="M1081.1,658.378a10.15,10.15,0,0,1-9.648-14.467,7.507,7.507,0,0,1,2.043,2.035,32.538,32.538,0,0,0,2.01,3.353c1.574,1.862,4.276,2.472,6.723,2.356s4.812-.824,7.25-1.03c.338,0,.684-.058,1.022-.066A10.142,10.142,0,0,1,1081.1,658.378Z" transform="translate(669.651 196.188)"/><path class="a" d="M1051.218,678.294a10.134,10.134,0,0,1-9.73-14.295,8.363,8.363,0,0,1,2.142,2.06c.824,1.112,1.277,2.4,2.2,3.419,1.714,1.911,4.589,2.579,7.184,2.521s4.943-.676,7.415-.865A10.142,10.142,0,0,1,1051.218,678.294Z" transform="translate(674.916 192.65)"/><path class="a" d="M1055.486,703.5a10.15,10.15,0,0,1-18.5-8.239,9.938,9.938,0,0,1,2.224,1.986c.972,1.178,1.648,2.472,2.719,3.609,2.076,2.035,5.421,2.867,8.4,2.95a44.451,44.451,0,0,0,5.149-.3Z" transform="translate(675.657 187.145)"/><path class="k" d="M506.388,582.965a8.082,8.082,0,0,0-3.221-6.525,9.475,9.475,0,0,0-7.918-9.293,9.458,9.458,0,0,0-6.3-7.044h0a8.048,8.048,0,0,0-1.17-.272h-1.392a9.277,9.277,0,0,0-8.964,7.926c-2.892-.667-5.536.2-6.023,2.027a2.472,2.472,0,0,0,.082,1.467,6.376,6.376,0,0,0,4.251,3.444l.28.082.42.107h.091a7.284,7.284,0,0,0-.692,3.123,7.2,7.2,0,0,0,3.881,6.426l-.19.115a2.57,2.57,0,0,0-.626.873,13.066,13.066,0,0,0-1.211,2.917c-.206.873-.239,1.78-.494,2.645-.478,1.59-1.7,2.933-1.837,4.589-.066.742.058,1.648-.47,2.126a2.557,2.557,0,0,1-.42.3,3.4,3.4,0,0,0-.915.964,3.2,3.2,0,0,1-.643.923c-.478.354-1.26.321-1.491.873s.371,1.2.231,1.8-.651.717-1.022,1.055a3.666,3.666,0,0,0-.882,1.648,5.4,5.4,0,0,1-4.449-1.137,8.312,8.312,0,0,1,.461,1.648,7.218,7.218,0,0,0-2.4-1.2,7.57,7.57,0,0,1-2.554-1.895l1.368-.19-6.039-9.219-1.788-.371,1.6,3.073a.98.98,0,0,0-.544.651,2.793,2.793,0,0,0-.058,1.046,18.728,18.728,0,0,0,.412,2.472l.461,2.159c.041.2.091.4.148.6a5.678,5.678,0,0,0-1.788.2,15.558,15.558,0,0,0-3.716-.882,2.061,2.061,0,0,0-.824,0,2.134,2.134,0,0,0-.783.634,25.344,25.344,0,0,0-2.76,3.889c-3.3,5.652-7.588,10.587-11.65,15.7-2.8,1.137-5.627,2.216-8.453,3.3l-6.08,2.323a9.22,9.22,0,0,1-3.773.824c-.577,0-1.294-.124-1.648.371a3.47,3.47,0,0,0-.371.824l-.626.066h0a7.2,7.2,0,0,0-1.458-2.686.923.923,0,0,0-.684.527c-.148.272-.239.568-.412.824-.321.478-.89.709-1.294,1.112s-.659,1.03-1.1,1.442a4.367,4.367,0,0,1-2.068.824,13.053,13.053,0,0,0-3.238,1.228,5.213,5.213,0,0,1-1.195.552,4.488,4.488,0,0,1-1.409.049l-3.213-.239a2.538,2.538,0,0,0-.865.041,1.648,1.648,0,0,0-1.022,1.648,2.6,2.6,0,0,0,1.022,1.771,6.544,6.544,0,0,0,1.829.948,53.68,53.68,0,0,0,8.569,2.538v.651a14.625,14.625,0,0,0,6.591,1.565,1.021,1.021,0,0,0,.494-.091,1.087,1.087,0,0,0,.412-.643,26.5,26.5,0,0,0,1.285-6.311h0a3.3,3.3,0,0,0,1.162-.3c1.1-.3,2.208.453,3.353.577,1.409.156,2.711-.667,4.045-1.17l.577-.189a6.326,6.326,0,0,1-1.335,1.277c-.552.4-1.17.692-1.705,1.1a11.755,11.755,0,0,1-1.45,1.12,9.1,9.1,0,0,1-1.112.428,7.336,7.336,0,0,0-1.59.824A3.22,3.22,0,0,0,417,640.613a1.582,1.582,0,0,0-.091,1.483,1.565,1.565,0,0,0,1.063.741,4.356,4.356,0,0,0,1.31,0c1.747-.132,3.485-.288,5.223-.445a13.938,13.938,0,0,0,2.183-.313c.379-.091.758-.214,1.137-.321a10.142,10.142,0,0,1,1.986-.3,1.649,1.649,0,0,1,.577.058c.4.132.692.544,1.1.626a1.648,1.648,0,0,0,.824-.107,18.373,18.373,0,0,1,3.864-.412,1.6,1.6,0,0,0,1.5-.667c.264-.527-.214-1.376-.428-2.076a6.353,6.353,0,0,1-.181-1.368,8.562,8.562,0,0,0-.956-3.246,8.471,8.471,0,0,1-.717-1.483,37.465,37.465,0,0,0,7.11-3.609,12.715,12.715,0,0,1,4.054-1.953,11.025,11.025,0,0,1,5.092.593,115.871,115.871,0,0,1,11.675,4.07c1.821.75,3.633,1.541,5.512,2.109a8.593,8.593,0,0,0,1.961,1.9,9.062,9.062,0,0,0,4.243,1.162,55.593,55.593,0,0,0,5.973.223,10.076,10.076,0,0,0,4.449-.824,4.569,4.569,0,0,0,.931-.618,3.691,3.691,0,0,0,2.933-1.079,7.111,7.111,0,0,0,2.233-3.526c.486-1.879.115-4.12,1.269-5.619.3-.412.709-.742,1.013-1.154a3.246,3.246,0,0,0,.527-1.9.38.38,0,0,1,.049-.074,6.979,6.979,0,0,0,.494-1.895,10.827,10.827,0,0,1,.536-1.5,46.3,46.3,0,0,0,1.532-4.441,25.938,25.938,0,0,0,.708-3.048c.124-.824.2-1.648.264-2.472a15.352,15.352,0,0,1,.75-3.815,31.044,31.044,0,0,0,1.73-9.129v-.181a6.122,6.122,0,0,0,5.421-6.229,6.5,6.5,0,0,0-.568-2.661,8.238,8.238,0,0,0,1.1-4.152Zm-29.479,35.814c.091.321.2.635.3.948-.486-.47-.956-.956-1.442-1.433.19.066.387.124.568.2a3.065,3.065,0,0,1,.544.288Zm-2.332-1.582c-2.851-2.472-6.146-4.391-9.063-6.789,1.59.783,3.139,1.7,4.671,2.57q2.727,1.557,5.528,2.991a4.524,4.524,0,0,1-1.162,1.228Zm1.211-6.229.14-.14v.98l-.766-.264a6.819,6.819,0,0,0,.6-.577Zm-25.071,6.673a23.588,23.588,0,0,0,3.032-4.325c1.129,1.969,2.966,3.395,4.523,5.051C455.76,618.046,453.239,617.774,450.718,617.642Z" transform="translate(788.448 210.995)"/><path class="l" d="M415.35,438.25l1.8.363,6.122,9.055-2.694.363Z" transform="translate(827.869 366.396)"/><path class="m" d="M414.49,645.441a35.248,35.248,0,0,0,1.8,4.672,44.476,44.476,0,0,0,5.973-1.706,18.811,18.811,0,0,0-1.244-1.648,6.144,6.144,0,0,0-1.689-1.294,4.647,4.647,0,0,0-2.052,0C416.352,645.441,415.421,645.457,414.49,645.441Z" transform="translate(785.178 195.934)"/><path class="l" d="M416.045,647.3A3.724,3.724,0,0,1,414,644.977a7.482,7.482,0,0,0-1.557-2.777.89.89,0,0,0-.692.519c-.148.264-.239.56-.4.824-.33.47-.906.7-1.318,1.1s-.659,1.013-1.1,1.417a4.383,4.383,0,0,1-2.084.824,13.517,13.517,0,0,0-3.3,1.211,5.686,5.686,0,0,1-1.211.544,4.8,4.8,0,0,1-1.417,0l-3.246-.231a2.535,2.535,0,0,0-.824,0,1.574,1.574,0,0,0-1.03,1.648,2.472,2.472,0,0,0,1.03,1.747,6.839,6.839,0,0,0,1.846.939,54.3,54.3,0,0,0,8.7,2.472v.643a15.06,15.06,0,0,0,6.632,1.541,1.12,1.12,0,0,0,.494-.082,1.087,1.087,0,0,0,.412-.643,25.705,25.705,0,0,0,1.359-7.053,5.619,5.619,0,0,0-.14-1.821c-.181-.585.428-.338-.132-.569" transform="translate(788.468 196.489)"/><path class="l" d="M482.271,632.991c-9.623.577-19.131-2.241-28.77-2.538a14.047,14.047,0,0,0-3.576.222,18.016,18.016,0,0,0-3.543,1.376c-5.166,2.406-10.513,4.4-15.852,6.385l-6.138,2.282a9.294,9.294,0,0,1-3.8.824c-.585,0-1.3-.124-1.648.362-1,1.483-.527,3.65.132,5.314.214.536.577,1.12,1.153,1.178a3.351,3.351,0,0,0,1.17-.3c1.112-.3,2.224.453,3.378.577,1.417.148,2.735-.659,4.078-1.153,2.224-.824,4.647-.824,6.987-1.186a31.3,31.3,0,0,0,10.941-4.54,12.771,12.771,0,0,1,4.078-1.928,11.287,11.287,0,0,1,5.133.585,117.791,117.791,0,0,1,11.773,4,54.864,54.864,0,0,0,6.146,2.249,22.244,22.244,0,0,0,13.784-.824c1.541-.61,3.213-1.648,3.3-3.345.058-.948-.684-1.78-1.17-2.6-.313-.519-.634-1.038-.972-1.541C487.206,636.015,485.2,632.818,482.271,632.991Z" transform="translate(784.495 198.563)"/><path class="a" d="M482.271,632.991c-9.623.577-19.131-2.241-28.77-2.538a14.047,14.047,0,0,0-3.576.222,18.016,18.016,0,0,0-3.543,1.376c-5.166,2.406-10.513,4.4-15.852,6.385l-6.138,2.282a9.294,9.294,0,0,1-3.8.824c-.585,0-1.3-.124-1.648.362-1,1.483-.527,3.65.132,5.314.214.536.577,1.12,1.153,1.178a3.351,3.351,0,0,0,1.17-.3c1.112-.3,2.224.453,3.378.577,1.417.148,2.735-.659,4.078-1.153,2.224-.824,4.647-.824,6.987-1.186a31.3,31.3,0,0,0,10.941-4.54,12.771,12.771,0,0,1,4.078-1.928,11.287,11.287,0,0,1,5.133.585,117.791,117.791,0,0,1,11.773,4,54.864,54.864,0,0,0,6.146,2.249,22.244,22.244,0,0,0,13.784-.824c1.541-.61,3.213-1.648,3.3-3.345.058-.948-.684-1.78-1.17-2.6-.313-.519-.634-1.038-.972-1.541C487.206,636.015,485.2,632.818,482.271,632.991Z" transform="translate(784.495 198.563)"/><path class="m" d="M436.92,645.144q2.257.766,4.556,1.417c.824-1.409,2.472-2.389,2.826-4a.379.379,0,0,0,0-.214.4.4,0,0,0-.173-.156,8.633,8.633,0,0,0-3.576-1.046c-.989-.058-1.442.972-1.887,1.7C438.494,643.158,437.324,645.3,436.92,645.144Z" transform="translate(781.228 196.676)"/><path class="l" d="M436.3,644.292a3.3,3.3,0,0,1-2.216-1.458c-.206-.371-.437-.873-.865-.824s-.569.494-.659.882a24.713,24.713,0,0,1-1.244,4.276,8.024,8.024,0,0,1-2.661,3.5c-.56.387-1.178.676-1.73,1.088a11.882,11.882,0,0,1-1.458,1.1,8.658,8.658,0,0,1-1.12.412,7.762,7.762,0,0,0-1.6.824,3.172,3.172,0,0,0-1.1,1.046,1.508,1.508,0,0,0-.082,1.458,1.557,1.557,0,0,0,1.063.725,4.481,4.481,0,0,0,1.326,0c1.755-.124,3.51-.28,5.265-.437a15.2,15.2,0,0,0,2.2-.3l1.145-.313a9.112,9.112,0,0,1,2-.3,1.558,1.558,0,0,1,.585.058c.4.132.692.536,1.112.618a1.861,1.861,0,0,0,.824-.107,18.2,18.2,0,0,1,3.9-.4,1.645,1.645,0,0,0,1.516-.659c.33-.643-.214-1.359-.437-2.051a6.592,6.592,0,0,1-.181-1.343,8.19,8.19,0,0,0-.964-3.2c-.445-.824-1.055-1.73-.742-2.6a2.471,2.471,0,0,0,.3-.9C440.353,643.97,437.107,644.473,436.3,644.292Z" transform="translate(783.958 196.523)"/><path class="m" d="M476.687,612.991a7.514,7.514,0,0,1-3.839-3.806c-.156-.363-.288-.75-.445-1.112a8.454,8.454,0,0,0-2.29-3.188,1.129,1.129,0,0,0-.824-.354.9.9,0,0,0-.618.667,2.546,2.546,0,0,0-.066,1.03,18.354,18.354,0,0,0,.412,2.406l.47,2.126a4.666,4.666,0,0,0,.288.947,3.3,3.3,0,0,0,.783.931c.428.4.865.774,1.3,1.153a4.468,4.468,0,0,0,.824.568,4.787,4.787,0,0,0,1.458.429,12.408,12.408,0,0,1,5.471,2.109s0-1.425,0-1.582a2.092,2.092,0,0,0-.412-1.145,7.308,7.308,0,0,0-2.513-1.178Z" transform="translate(775.653 203.123)"/><path class="a" d="M476.687,612.991a7.514,7.514,0,0,1-3.839-3.806c-.156-.363-.288-.75-.445-1.112a8.454,8.454,0,0,0-2.29-3.188,1.129,1.129,0,0,0-.824-.354.9.9,0,0,0-.618.667,2.546,2.546,0,0,0-.066,1.03,18.354,18.354,0,0,0,.412,2.406l.47,2.126a4.666,4.666,0,0,0,.288.947,3.3,3.3,0,0,0,.783.931c.428.4.865.774,1.3,1.153a4.468,4.468,0,0,0,.824.568,4.787,4.787,0,0,0,1.458.429,12.408,12.408,0,0,1,5.471,2.109s0-1.425,0-1.582a2.092,2.092,0,0,0-.412-1.145,7.308,7.308,0,0,0-2.513-1.178Z" transform="translate(775.653 203.123)"/><ellipse class="l" cx="2.34" cy="2.356" rx="2.34" ry="2.356" transform="translate(1269.592 795.138)"/><path class="l" d="M496.979,590.465a2.529,2.529,0,0,0-1.845.264,2.562,2.562,0,0,0-.634.865,12.564,12.564,0,0,0-1.219,2.867c-.206.824-.239,1.755-.5,2.6-.478,1.565-1.705,2.892-1.846,4.523-.066.733.058,1.59-.478,2.084a3.027,3.027,0,0,1-.42.3,3.165,3.165,0,0,0-.923.948,3.106,3.106,0,0,1-.651.9c-.478.354-1.269.321-1.5.824s.371,1.186.231,1.78-.659.708-1.03,1.038a3.6,3.6,0,0,0-.89,1.648A5.5,5.5,0,0,1,480.79,610a14.27,14.27,0,0,1,.7,5.125,2.093,2.093,0,0,1-.412,1.582,28.538,28.538,0,0,1,5.5.956,3.79,3.79,0,0,0,2.4,0,4,4,0,0,0,1.1-.873,7.038,7.038,0,0,0,2.266-3.493,20.52,20.52,0,0,0,.041-2.365,13.33,13.33,0,0,1,.6-2.875,34.216,34.216,0,0,0,1.046-5.916c.107-1.236,1.178-2.225,1.738-3.3,1.055-2.084,2.142-4.251,2.216-6.591C498.018,591.495,497.754,590.547,496.979,590.465Z" transform="translate(773.502 205.612)"/><path class="a" d="M496.979,590.465a2.529,2.529,0,0,0-1.845.264,2.562,2.562,0,0,0-.634.865,12.564,12.564,0,0,0-1.219,2.867c-.206.824-.239,1.755-.5,2.6-.478,1.565-1.705,2.892-1.846,4.523-.066.733.058,1.59-.478,2.084a3.027,3.027,0,0,1-.42.3,3.165,3.165,0,0,0-.923.948,3.106,3.106,0,0,1-.651.9c-.478.354-1.269.321-1.5.824s.371,1.186.231,1.78-.659.708-1.03,1.038a3.6,3.6,0,0,0-.89,1.648A5.5,5.5,0,0,1,480.79,610a14.27,14.27,0,0,1,.7,5.125,2.093,2.093,0,0,1-.412,1.582,28.538,28.538,0,0,1,5.5.956,3.79,3.79,0,0,0,2.4,0,4,4,0,0,0,1.1-.873,7.038,7.038,0,0,0,2.266-3.493,20.52,20.52,0,0,0,.041-2.365,13.33,13.33,0,0,1,.6-2.875,34.216,34.216,0,0,0,1.046-5.916c.107-1.236,1.178-2.225,1.738-3.3,1.055-2.084,2.142-4.251,2.216-6.591C498.018,591.495,497.754,590.547,496.979,590.465Z" transform="translate(773.502 205.612)"/><path class="l" d="M487.508,631.763c-2-.956-3.469-2.727-5.092-4.251-3.09-2.908-6.871-4.943-10.126-7.687-2.159-1.8-4.119-3.905-6.451-5.421a16.123,16.123,0,0,0-6.912-2.414,1.839,1.839,0,0,0-.824,0,1.9,1.9,0,0,0-.783.618,24.9,24.9,0,0,0-2.793,3.831c-4.119,7-9.977,12.886-14.83,19.394a1.235,1.235,0,0,0-.239.461,1.145,1.145,0,0,0,.181.717l.989,1.928c.552,1.088,1.442,2.348,2.628,2.134a2.875,2.875,0,0,0,1.376-.882l4.432-4.243,4.647-4.441c2.719-2.6,5.487-5.256,7.267-8.585,1.384,2.406,3.848,3.979,5.528,6.179.643.824,1.17,1.755,1.747,2.645.915,1.417,1.961,2.752,3,4.12l5.331,6.8a10.2,10.2,0,0,0,2.472,2.472,9.434,9.434,0,0,0,4.276,1.145,56.5,56.5,0,0,0,6.023.214,10.383,10.383,0,0,0,4.49-.824,4.07,4.07,0,0,0,2.43-3.617,5.306,5.306,0,0,0-.766-2.249A18.361,18.361,0,0,0,487.508,631.763Z" transform="translate(780.782 201.818)"/><ellipse class="n" cx="1.804" cy="1.813" rx="1.804" ry="1.813" transform="translate(1271.569 797.313)"/><path class="m" d="M502.942,591.32a3.469,3.469,0,0,1,.2,2.6,10.561,10.561,0,0,1-1.162,2.4,11.412,11.412,0,0,1-1.508,2.142,15.519,15.519,0,0,0,7.926-2.274,11.51,11.51,0,0,0,5-4.358,2.307,2.307,0,0,1-1.845-.346,6.591,6.591,0,0,1-1.409-1.31l-1.392-1.565a6.266,6.266,0,0,1-.824-1.129,3.114,3.114,0,0,1-.371-1.821,10.6,10.6,0,0,1-1.846,1.532c-1,.651-2.093,1.12-3.1,1.763-.346.231-1.137.593-.931,1.055S502.662,590.826,502.942,591.32Z" transform="translate(770.036 206.446)"/><path class="a" d="M502.942,591.32a3.469,3.469,0,0,1,.2,2.6,10.561,10.561,0,0,1-1.162,2.4,11.412,11.412,0,0,1-1.508,2.142,15.519,15.519,0,0,0,7.926-2.274,11.51,11.51,0,0,0,5-4.358,2.307,2.307,0,0,1-1.845-.346,6.591,6.591,0,0,1-1.409-1.31l-1.392-1.565a6.266,6.266,0,0,1-.824-1.129,3.114,3.114,0,0,1-.371-1.821,10.6,10.6,0,0,1-1.846,1.532c-1,.651-2.093,1.12-3.1,1.763-.346.231-1.137.593-.931,1.055S502.662,590.826,502.942,591.32Z" transform="translate(770.036 206.446)"/><path class="n" d="M501.166,592.8a2.348,2.348,0,0,0,0,2.719c.082.1.379.717.5.725a.453.453,0,0,0,.313-.165,20.677,20.677,0,0,0,1.763-2.1,3.921,3.921,0,0,1,2.241-1.467,4.844,4.844,0,0,1,3.09.964,2.933,2.933,0,0,1,1.063.824,2.876,2.876,0,0,1,.346,1.178,56.764,56.764,0,0,1,.313,7.489,29.512,29.512,0,0,1-.354,5.4c-.181.915-.445,1.813-.568,2.744a17.5,17.5,0,0,0-.115,2.472v3.444a9.063,9.063,0,0,0,.132,1.887c.165.75.519,1.45.758,2.183a14.28,14.28,0,0,1,.5,2.579l.47,3.559a4.5,4.5,0,0,1-.42,3.3c-.3.4-.709.733-1.022,1.137-1.162,1.516-.824,3.683-1.277,5.536a6.9,6.9,0,0,1-2.257,3.46,3.732,3.732,0,0,1-2.974,1.063c-1.45-.272-2.315-1.78-2.711-3.2s-.536-2.974-1.392-4.177a11.077,11.077,0,0,0-2.752-2.3,4.754,4.754,0,0,1-2.15-2.793c-.091-.519,0-1.055-.091-1.582a3.732,3.732,0,0,0-2.3-3.024c-.742-.288-1.648-.4-2.076-1.071a5,5,0,0,0,2.167-2.908,14.939,14.939,0,0,0,.527-3.675l.247-4.119a13.76,13.76,0,0,1,.98-5.347c.363-.742.824-1.442,1.195-2.175a23.606,23.606,0,0,0,1.277-3.188c.593-1.7,1.186-3.394,1.714-5.108a9.623,9.623,0,0,1,.939-2.381C499.691,593.893,500.334,592.962,501.166,592.8Z" transform="translate(771.845 205.241)"/><path class="l" d="M492.335,619.53h1.1l.231-1.648a3.436,3.436,0,0,1,.231-.964,5.769,5.769,0,0,1,.634-.923c1.071-1.524,1-3.543,1.261-5.4a27.457,27.457,0,0,1,2.406-7.052l2.126-4.737a6.54,6.54,0,0,0,.461-1.211,7.263,7.263,0,0,0,.132-1.4c0-.733.231-3.4.255-4.119,0-.272-.6-.124-.725-.362-.264-.527-.626.9-1.129,1.211a2.768,2.768,0,0,0-.98,1.434c-.461,1.186-.741,2.472-1.17,3.65a7.456,7.456,0,0,1-1.986,3.23c-.437.379-.939.684-1.351,1.1-1.318,1.3-1.45,3.37-1.491,5.232C492.3,608.7,492.088,619.53,492.335,619.53Z" transform="translate(771.49 205.4)"/><path class="l" d="M509.364,590.446a3.74,3.74,0,0,0-1.953,2.678,13.544,13.544,0,0,1-.989,3.3c-1.335,2.323-4.737,3-5.685,5.512a10.134,10.134,0,0,0-.379,2.6c-.165,1.8-.758,3.543-.939,5.339a23.789,23.789,0,0,0,.1,4.194l1.195,14.187a18.95,18.95,0,0,1-.354,6.245,6.015,6.015,0,0,0,3.576-.593c1.112-.511,2.134-1.211,3.213-1.8,1.845-1.022,3.889-1.738,5.512-3.1a3.37,3.37,0,0,0,.742-.824,7.123,7.123,0,0,0,.494-1.862,10.052,10.052,0,0,1,.536-1.467,43.2,43.2,0,0,0,1.549-4.383,25.17,25.17,0,0,0,.709-3c.132-.824.206-1.648.272-2.472a14.5,14.5,0,0,1,.758-3.749,30.2,30.2,0,0,0,1.738-9,4.7,4.7,0,0,0-.091-1.318,7.052,7.052,0,0,0-.725-1.508c-.494-.931-.824-1.953-1.252-2.9a14.261,14.261,0,0,0-4.869-5.116C511.564,590.751,510.443,590.059,509.364,590.446Z" transform="translate(770.23 205.623)"/><path class="m" d="M478.533,617.547a8.592,8.592,0,0,1-2.266-1.722c-.3-.346-.544-.733-.824-1.079a5.611,5.611,0,0,0-2.851-1.648,13.928,13.928,0,0,0-3.3-.321,5.98,5.98,0,0,0-2.2.264,2.241,2.241,0,0,0-1.458,1.565,2.6,2.6,0,0,0,1.112,2.307,5.241,5.241,0,0,0,2.216,1.071,17.721,17.721,0,0,0,2,.239c3.938.412,7.456,2.554,10.908,4.507q4.548,2.587,9.277,4.812a19.278,19.278,0,0,0,.157-2.842c0-.708-.058-1.8-.725-2.216a14.549,14.549,0,0,0-2.95-.882,46.413,46.413,0,0,1-5.94-2.406A29.546,29.546,0,0,1,478.533,617.547Z" transform="translate(776.172 201.673)"/><ellipse class="m" cx="7.02" cy="7.061" rx="7.02" ry="7.061" transform="translate(1264.912 782.838)"/><path class="l" d="M510.23,599.989a11.254,11.254,0,0,0-1.359,2.546c-.824,1.78-2.224,3.3-2.908,5.182s-.692,4.309-2.1,5.85a2.051,2.051,0,0,0-.618.89,4.249,4.249,0,0,1-.066.643c-.206.56-1.12.585-1.294,1.162-.049.165,0,.346-.082.511-.14.371-.634.428-.956.651-.684.461-.544,1.532-1.03,2.2a1.854,1.854,0,0,1-1.755.618,6.18,6.18,0,0,1-1.821-.684,1.757,1.757,0,0,0-.659-.206,1.359,1.359,0,0,0-.758.264,4.671,4.671,0,0,0-1.895,4,13.05,13.05,0,0,0,1.087,4.474,1.8,1.8,0,0,0,.354.667,1.574,1.574,0,0,0,1.747.132,8.238,8.238,0,0,1,1.705-.766c1.088-.2,2.15.552,3.254.486a4.523,4.523,0,0,0,2.192-.964,12.111,12.111,0,0,0,2.95-2.472c.478-.634.824-1.351,1.252-2.027a26.006,26.006,0,0,1,1.771-2.365l4.053-4.943a11.382,11.382,0,0,0,1.088-1.5,10.568,10.568,0,0,0,.824-2.266,17.354,17.354,0,0,0,.824-4.029,15.477,15.477,0,0,0-.3-3.378,11.941,11.941,0,0,0-.824-3.221C514.029,599.577,511.886,598.061,510.23,599.989Z" transform="translate(771.365 204.081)"/><path class="o" d="M523.5,584.1a7.909,7.909,0,0,0-3.246-6.426,9.4,9.4,0,0,0-7.983-9.153,9.121,9.121,0,0,0-17.969.486c-2.917-.659-5.586.2-6.072,1.994s1.574,4.119,4.647,4.943a8.657,8.657,0,0,0,2.982.3,9.129,9.129,0,0,0,6.278,3.913,9.368,9.368,0,0,0,6.855,7.069,7.868,7.868,0,0,0,2.117,2.925v.684a5.94,5.94,0,1,0,11.88,0,6.343,6.343,0,0,0-.568-2.628A7.942,7.942,0,0,0,523.5,584.1Z" transform="translate(772.206 210.755)"/><path class="a" d="M490.2,571.382c.486-1.8,3.155-2.653,6.072-1.994a9.277,9.277,0,0,1,9.063-7.81h.6a8.928,8.928,0,0,0-2.587-.387,9.277,9.277,0,0,0-9.063,7.81c-2.917-.659-5.586.2-6.072,1.994s1.574,4.119,4.647,4.943a9.063,9.063,0,0,0,1.763.3C491.683,575.361,489.714,573.219,490.2,571.382Z" transform="translate(772.207 210.756)"/><path class="a" d="M514.733,594.462a6.19,6.19,0,0,1,0-.676,7.7,7.7,0,0,1-2.117-2.925,9.343,9.343,0,0,1-6.855-7.077,9.1,9.1,0,0,1-6.286-3.905,7.909,7.909,0,0,1-1.755-.049,9.153,9.153,0,0,0,6.056,3.6,9.367,9.367,0,0,0,6.855,7.069,7.868,7.868,0,0,0,2.117,2.925v.684a6.047,6.047,0,0,0,5.907,6.146A6.146,6.146,0,0,1,514.733,594.462Z" transform="translate(770.521 207.473)"/><ellipse class="m" cx="1.079" cy="1.442" rx="1.079" ry="1.442" transform="translate(1272.549 790.846) rotate(-37.22)"/><g class="i" transform="translate(1251.292 476.236)"><ellipse cx="9.376" cy="12.276" rx="9.376" ry="12.276" transform="translate(35.337 253.411)"/><path d="M536.832,456.772a14.83,14.83,0,0,0,1.961-7.506c0-6.781-4.2-12.276-9.384-12.276S520,442.5,520,449.282a14.83,14.83,0,0,0,1.961,7.506,15.332,15.332,0,0,0,0,15,15.332,15.332,0,0,0,0,15A14.78,14.78,0,0,0,520,494.3c0,6.772,4.2,12.276,9.376,12.276s9.384-5.5,9.384-12.276a14.78,14.78,0,0,0-1.961-7.506,15.333,15.333,0,0,0,0-15,15.332,15.332,0,0,0,0-15Z" transform="translate(-484.695 -243.607)"/><ellipse cx="9.376" cy="12.276" rx="9.376" ry="12.276" transform="translate(35.337 178.396)"/><ellipse cx="9.376" cy="12.276" rx="9.376" ry="12.276" transform="translate(35.337 163.393)"/><path d="M486.765,275.259a43.73,43.73,0,0,1-3.493-5.141l24.634-4.045-26.645.2a45,45,0,0,1-.824-35.592l35.749,18.546L483.23,224.985a44.927,44.927,0,1,1,74.15,50.257,44.931,44.931,0,0,1,5.125,8.189l-31.992,16.659,34.1-11.444a44.927,44.927,0,0,1-7.242,42.183,44.919,44.919,0,1,1-70.607,0,44.918,44.918,0,0,1,0-55.547Z" transform="translate(-477.149 -202.271)"/><path class="a" d="M566.987,324.428a44.712,44.712,0,0,1-9.615,27.773,44.918,44.918,0,1,1-70.607,0C480.742,344.556,566.987,319.386,566.987,324.428Z" transform="translate(-477.149 -223.668)"/></g><g class="i" transform="translate(1372.051 517.292)"><ellipse cx="7.011" cy="9.17" rx="7.011" ry="9.17" transform="translate(26.405 189.212)"/><path d="M668.316,442.1a11.064,11.064,0,0,0,1.458-5.6c0-5.067-3.139-9.178-7-9.178s-7.011,4.119-7.011,9.178a10.983,10.983,0,0,0,1.467,5.6,11.452,11.452,0,0,0,0,11.213,11.452,11.452,0,0,0,0,11.213,10.982,10.982,0,0,0-1.466,5.6c0,5.067,3.139,9.178,7.011,9.178s7-4.119,7-9.178a11.064,11.064,0,0,0-1.458-5.6,11.534,11.534,0,0,0,0-11.213,11.534,11.534,0,0,0,0-11.213Z" transform="translate(-629.363 -282.961)"/><ellipse cx="7.011" cy="9.17" rx="7.011" ry="9.17" transform="translate(26.405 133.155)"/><ellipse cx="7.011" cy="9.17" rx="7.011" ry="9.17" transform="translate(26.405 121.941)"/><path d="M630.9,306.486a32.133,32.133,0,0,1-2.612-3.839l18.414-3.024-19.913.148a33.647,33.647,0,0,1-.643-26.6l26.719,13.866-24.643-18.126a33.574,33.574,0,1,1,55.44,37.569A33.948,33.948,0,0,1,687.5,312.6L663.6,325.015l25.483-8.552a33.582,33.582,0,0,1-5.413,31.522,33.565,33.565,0,1,1-52.729,0,33.565,33.565,0,0,1,0-41.508Z" transform="translate(-623.72 -252.103)"/><path class="a" d="M690.854,343.194a33.425,33.425,0,0,1-7.184,20.754,33.565,33.565,0,1,1-52.729,0C626.426,358.239,690.854,339.429,690.854,343.194Z" transform="translate(-623.724 -268.058)"/></g><g class="i" transform="translate(1711.346 443.281)"><ellipse class="h" cx="9.376" cy="12.276" rx="9.376" ry="12.276" transform="translate(35.97 253.411)"/><path class="h" d="M1081.151,416.772a14.83,14.83,0,0,1-1.961-7.506c0-6.781,4.2-12.276,9.384-12.276s9.376,5.5,9.376,12.276a14.829,14.829,0,0,1-1.961,7.506,15.332,15.332,0,0,1,0,15,15.332,15.332,0,0,1,0,15,14.781,14.781,0,0,1,1.961,7.506c0,6.772-4.2,12.276-9.376,12.276s-9.384-5.5-9.384-12.276a14.779,14.779,0,0,1,1.961-7.506,15.332,15.332,0,0,1,0-15A15.332,15.332,0,0,1,1081.151,416.772Z" transform="translate(-1043.228 -203.608)"/><ellipse class="h" cx="9.376" cy="12.276" rx="9.376" ry="12.276" transform="translate(35.97 178.396)"/><ellipse class="h" cx="9.376" cy="12.276" rx="9.376" ry="12.276" transform="translate(35.97 163.393)"/><path d="M1115.985,235.259a43.727,43.727,0,0,0,3.493-5.141l-24.634-4.045,26.645.2a45,45,0,0,0,.824-35.592l-35.749,18.546,32.956-24.239a44.927,44.927,0,1,0-74.15,50.257,44.939,44.939,0,0,0-5.124,8.189l31.991,16.659-34.1-11.444a44.927,44.927,0,0,0,7.242,42.183,44.919,44.919,0,1,0,70.607,0,44.918,44.918,0,0,0,0-55.547Z" transform="translate(-1035.541 -162.271)"/><path class="a" d="M1035.81,284.428a44.713,44.713,0,0,0,9.615,27.773,44.919,44.919,0,1,0,70.607,0C1122.055,304.556,1035.81,279.386,1035.81,284.428Z" transform="translate(-1035.588 -183.668)"/></g><g class="i" transform="translate(1632.43 512.349)"><ellipse class="h" cx="7.011" cy="9.17" rx="7.011" ry="9.17" transform="translate(26.738 189.212)"/><path class="h" d="M973.688,436.1a11.065,11.065,0,0,1-1.458-5.6c0-5.067,3.139-9.178,7-9.178s7.011,4.119,7.011,9.178a10.982,10.982,0,0,1-1.466,5.6,11.452,11.452,0,0,1,0,11.213,11.452,11.452,0,0,1,0,11.213,10.982,10.982,0,0,1,1.467,5.6c0,5.067-3.139,9.178-7.011,9.178s-7-4.119-7-9.178a11.065,11.065,0,0,1,1.458-5.6,11.534,11.534,0,0,1,0-11.213,11.534,11.534,0,0,1,0-11.213Z" transform="translate(-945.475 -276.96)"/><ellipse class="h" cx="7.011" cy="9.17" rx="7.011" ry="9.17" transform="translate(26.738 133.155)"/><ellipse class="h" cx="7.011" cy="9.17" rx="7.011" ry="9.17" transform="translate(26.738 121.941)"/><path d="M999.739,300.486a32.123,32.123,0,0,0,2.612-3.839l-18.414-3.024,19.913.148a33.647,33.647,0,0,0,.643-26.6l-26.719,13.866,24.643-18.126a33.574,33.574,0,1,0-55.44,37.569,33.946,33.946,0,0,0-3.831,6.121l23.893,12.416L941.6,310.471a33.582,33.582,0,0,0,5.413,31.522,33.565,33.565,0,1,0,52.729,0,33.565,33.565,0,0,0,0-41.508Z" transform="translate(-939.756 -246.103)"/><path class="a" d="M939.8,337.194a33.426,33.426,0,0,0,7.184,20.754,33.565,33.565,0,1,0,52.729,0C1004.225,352.239,939.8,333.429,939.8,337.194Z" transform="translate(-939.76 -262.058)"/></g><g class="i" transform="translate(907.038 443.418)"><ellipse cx="9.376" cy="12.276" rx="9.376" ry="12.276" transform="translate(35.346 253.273)"/><path d="M119,416.772a14.83,14.83,0,0,0,1.961-7.506c0-6.781-4.2-12.276-9.376-12.276s-9.376,5.5-9.376,12.276a14.83,14.83,0,0,0,1.953,7.506,15.382,15.382,0,0,0,0,15,15.382,15.382,0,0,0,0,15,14.772,14.772,0,0,0-1.953,7.506c0,6.772,4.194,12.276,9.376,12.276s9.4-5.487,9.4-12.259a14.781,14.781,0,0,0-1.961-7.506,15.333,15.333,0,0,0,0-15,15.333,15.333,0,0,0,0-15Z" transform="translate(-66.864 -203.746)"/><ellipse cx="9.376" cy="12.276" rx="9.376" ry="12.276" transform="translate(35.346 178.258)"/><ellipse cx="9.376" cy="12.276" rx="9.376" ry="12.276" transform="translate(35.346 163.255)"/><path d="M68.941,235.288a44.758,44.758,0,0,1-3.493-5.141L90.09,226.1l-26.669.239a45,45,0,0,1-.824-35.592l35.757,18.546L65.4,185.056a44.918,44.918,0,1,1,74.15,50.257,44.935,44.935,0,0,1,5.125,8.189l-32,16.618,34.109-11.444a44.976,44.976,0,0,1-7.25,42.183,44.918,44.918,0,1,1-70.607,0,44.918,44.918,0,0,1,0-55.547Z" transform="translate(-59.309 -162.439)"/><path class="a" d="M149.147,284.428a44.712,44.712,0,0,1-9.615,27.773,44.918,44.918,0,1,1-70.607,0C62.9,304.556,149.147,279.386,149.147,284.428Z" transform="translate(-59.309 -183.806)"/></g><g class="i" transform="translate(1008.847 512.349)"><ellipse cx="7.011" cy="9.17" rx="7.011" ry="9.17" transform="translate(26.405 189.212)"/><path d="M227.486,436.1a11.065,11.065,0,0,0,1.458-5.6c0-5.067-3.131-9.178-7-9.178s-7.011,4.119-7.011,9.178a11.064,11.064,0,0,0,1.466,5.6,11.452,11.452,0,0,0,0,11.213,11.452,11.452,0,0,0,0,11.213,11.065,11.065,0,0,0-1.466,5.6c0,5.067,3.139,9.178,7.011,9.178s7-4.119,7-9.178a11.065,11.065,0,0,0-1.458-5.6,11.534,11.534,0,0,0,0-11.213,11.534,11.534,0,0,0,0-11.213Z" transform="translate(-188.525 -276.96)"/><ellipse cx="7.011" cy="9.17" rx="7.011" ry="9.17" transform="translate(26.405 133.155)"/><ellipse cx="7.011" cy="9.17" rx="7.011" ry="9.17" transform="translate(26.405 121.942)"/><path d="M190.064,300.486a33.123,33.123,0,0,1-2.612-3.839l18.414-3.024-19.913.148a33.648,33.648,0,0,1-.643-26.6l26.719,13.866-24.643-18.126a33.574,33.574,0,1,1,55.44,37.569,33.055,33.055,0,0,1,3.831,6.122l-23.893,12.416,25.483-8.552a33.582,33.582,0,0,1-5.413,31.522,33.565,33.565,0,1,1-52.729,0,33.565,33.565,0,0,1,0-41.508Z" transform="translate(-182.88 -246.103)"/><path class="a" d="M250.014,337.194a33.425,33.425,0,0,1-7.184,20.754,33.565,33.565,0,1,1-52.729,0C185.569,352.239,250.014,333.429,250.014,337.194Z" transform="translate(-182.884 -262.058)"/></g><path class="p" d="M851.134,268.71a15.077,15.077,0,0,0-8.733.956,12.894,12.894,0,0,1-10.5,0,14.731,14.731,0,0,0-12.358.239,7.613,7.613,0,0,1-3.551.89c-5.009,0-9.17-5.042-10.035-11.691a9.786,9.786,0,0,0,2.472-2.694c2.933-4.729,7.473-7.769,12.581-7.769s9.59,3,12.523,7.679a9.623,9.623,0,0,0,8.313,4.564h.132C846.009,260.842,849.461,264.039,851.134,268.71Z" transform="translate(716.237 265.799)"/><path class="a" d="M866.381,243.848l-8.091,5.125,4.943-8.931a7.992,7.992,0,0,0-4.894-1.738h-.132a9.352,9.352,0,0,1-1.648-.124l-2.785,1.738,1.178-2.142a9.714,9.714,0,0,1-4.8-3.642l-4.943,3.114,3.1-5.635a14.357,14.357,0,0,0-10.991-5.553c-5.108,0-9.648,3.032-12.589,7.761a9.4,9.4,0,0,1-8.313,4.482h-.272c-5.635,0-10.2,6.385-10.2,14.262s4.564,14.27,10.2,14.27a7.737,7.737,0,0,0,3.551-.89,14.715,14.715,0,0,1,12.358-.247,12.812,12.812,0,0,0,10.5,0,14.764,14.764,0,0,1,12.243.239,7.662,7.662,0,0,0,3.51.873c5.635,0,10.2-6.393,10.2-14.27a18.067,18.067,0,0,0-2.117-8.692Z" transform="translate(716.24 269.776)"/><path class="p" d="M436.5,264.587a10.579,10.579,0,0,0-6.122.667,9,9,0,0,1-7.341,0,10.282,10.282,0,0,0-8.643.173,5.454,5.454,0,0,1-2.472.618c-3.5,0-6.418-3.526-7.028-8.181a6.855,6.855,0,0,0,1.755-1.887c2.052-3.3,5.232-5.438,8.807-5.438s6.715,2.1,8.766,5.372a6.748,6.748,0,0,0,5.825,3.2h.091C432.912,259.092,435.326,261.333,436.5,264.587Z" transform="translate(786.867 265.464)"/><path class="a" d="M447.17,247.2l-5.66,3.592,3.436-6.253a5.561,5.561,0,0,0-3.419-1.219h-.1a6.173,6.173,0,0,1-1.17-.091l-1.92,1.219.824-1.5A6.838,6.838,0,0,1,435.8,240.4l-3.436,2.175,2.175-3.938a10.06,10.06,0,0,0-7.7-3.9c-3.576,0-6.756,2.126-8.807,5.438a6.591,6.591,0,0,1-5.825,3.139h-.19c-3.946,0-7.143,4.465-7.143,9.986s3.2,9.986,7.143,9.986a5.355,5.355,0,0,0,2.472-.626,10.3,10.3,0,0,1,8.634-.165,8.849,8.849,0,0,0,7.349.049,10.332,10.332,0,0,1,8.568.165,5.339,5.339,0,0,0,2.472.61c3.938,0,7.135-4.474,7.135-9.986a12.631,12.631,0,0,0-1.483-6.138Z" transform="translate(786.871 268.247)"/><path class="p" d="M321.59,343a10.563,10.563,0,0,1,6.113.667,9.013,9.013,0,0,0,7.349,0,10.315,10.315,0,0,1,8.643.165,5.33,5.33,0,0,0,2.472.626c3.5,0,6.418-3.534,7.02-8.189a6.714,6.714,0,0,1-1.747-1.887c-2.06-3.3-5.24-5.429-8.807-5.429s-6.715,2.093-8.774,5.372a6.748,6.748,0,0,1-5.817,3.2h-.091C325.174,337.535,322.752,339.768,321.59,343Z" transform="translate(801.539 251.656)"/><path class="a" d="M308.318,325.639l5.668,3.592-3.444-6.245a5.594,5.594,0,0,1,3.427-1.228h.091a7.013,7.013,0,0,0,1.178-.082l1.92,1.211-.824-1.491a6.83,6.83,0,0,0,3.353-2.546l3.436,2.175-2.142-3.946a10.051,10.051,0,0,1,7.7-3.889c3.567,0,6.756,2.126,8.807,5.438a6.591,6.591,0,0,0,5.817,3.139h.2c3.938,0,7.135,4.474,7.135,9.986s-3.2,9.986-7.135,9.986a5.347,5.347,0,0,1-2.472-.618,10.282,10.282,0,0,0-8.643-.173,8.947,8.947,0,0,1-3.691.824,9.062,9.062,0,0,1-3.658-.774,10.315,10.315,0,0,0-8.56.165,5.339,5.339,0,0,1-2.472.61c-3.946,0-7.143-4.465-7.143-9.986a12.721,12.721,0,0,1,1.458-6.146Z" transform="translate(804.134 254.431)"/><path class="b" d="M508.45,479.771c-2.15-3.979.288-8.857,3.1-12.408s6.22-7.25,6.146-11.773c-.1-6.509-7-10.348-12.523-13.792a60.967,60.967,0,0,1-11.238-9.063,16.3,16.3,0,0,1-3.46-4.622c-1.137-2.546-1.1-5.438-1.038-8.239q.371-13.916,1.376-27.815" transform="translate(771.985 240.541)"/><path class="c" d="M478.388,389.422a10.134,10.134,0,0,1,5.059-8.313l2.274,4.49-.066-5.438a10.4,10.4,0,0,1,3.337-.4,10.142,10.142,0,1,1-10.6,9.664Z" transform="translate(773.927 242.709)"/><path class="c" d="M504.353,446.575a10.142,10.142,0,0,0,3.221-19.9l.049,4.177-2.3-4.548h0a10.142,10.142,0,0,0-10.628,9.631,10.019,10.019,0,0,0,.437,3.46,10.134,10.134,0,0,0,9.219,7.176Z" transform="translate(771.055 234.512)"/><path class="c" d="M474.468,426.667a10.142,10.142,0,1,0-4.49-18.949l1.8,4.943-3.691-3.534a10.06,10.06,0,0,0-3.3,7,9.813,9.813,0,0,0,.255,2.793,10.134,10.134,0,0,0,9.425,7.745Z" transform="translate(776.323 238.017)"/><path class="a" d="M479.807,393.314c2.34.255,4.614.98,6.962,1.129s4.943-.42,6.418-2.241a32.46,32.46,0,0,0,1.87-3.3,7.242,7.242,0,0,1,2.562-2.406,10.142,10.142,0,1,1-18.949,6.731C479.041,393.239,479.42,393.272,479.807,393.314Z" transform="translate(773.875 241.52)"/><path class="a" d="M474.531,427.908a10.15,10.15,0,0,0,9.648-14.468,7.54,7.54,0,0,0-2.043,2.043,34.367,34.367,0,0,1-2.01,3.353c-1.574,1.854-4.276,2.472-6.723,2.348s-4.811-.824-7.25-1.03c-.338,0-.684-.049-1.022-.058a10.134,10.134,0,0,0,9.4,7.81Z" transform="translate(776.26 236.776)"/><path class="a" d="M504.451,447.858a10.134,10.134,0,0,0,9.73-14.278,8.1,8.1,0,0,0-2.142,2.06,33.973,33.973,0,0,1-2.2,3.419c-1.714,1.9-4.589,2.579-7.184,2.472s-4.943-.667-7.415-.824a10.134,10.134,0,0,0,9.211,7.151Z" transform="translate(770.958 233.229)"/><circle cx="82.356" cy="82.356" r="82.356" transform="translate(1461.072 557.454)"/><path class="q" d="M859.06,414.026c-2.867-2.867-9.763-7.193-13.182-8.807-3.946-1.895-5.4-1.862-8.189.157-2.323,1.648-3.831,3.238-6.5,2.653s-7.959-4.573-13.075-9.672-9.088-10.356-9.656-13.067,1-4.185,2.661-6.509c2.01-2.793,2.068-4.243.156-8.189-1.648-3.419-5.924-10.3-8.816-13.182s-3.518-2.249-5.1-1.648a29.5,29.5,0,0,0-4.671,2.472c-2.867,1.92-4.474,3.518-5.6,5.924s-2.406,6.871,4.161,18.562A103.556,103.556,0,0,0,809.453,407h0a103.711,103.711,0,0,0,24.362,18.241c11.683,6.591,16.156,5.281,18.562,4.161s4-2.711,5.916-5.6a29.108,29.108,0,0,0,2.472-4.671C861.309,417.544,861.951,416.9,859.06,414.026Z" transform="translate(719.722 247.024)"/><circle cx="82.356" cy="82.356" r="82.356" transform="translate(1076.414 621.042)"/><path class="r" d="M357.832,430.16,325,505.908l3.065,3.065L357.84,495.84l29.775,13.133,3.065-3.065Z" transform="translate(800.938 233.831)"/></g></svg>