<svg xmlns="http://www.w3.org/2000/svg" width="21" height="22" viewBox="0 0 21 22"><defs><style>.a{fill:#fff;}</style></defs><g transform="translate(0 0.073)"><g transform="translate(0)"><rect width="21" height="22" rx="6" transform="translate(0 -0.073)"/><g transform="translate(5.729 4.325)"><g transform="translate(0)"><path class="a" d="M75.214,0a4.646,4.646,0,0,0-4.641,4.641c0,3.176,4.153,7.837,4.33,8.034a.418.418,0,0,0,.622,0c.177-.2,4.33-4.859,4.33-8.034A4.646,4.646,0,0,0,75.214,0Zm0,6.975a2.335,2.335,0,1,1,2.335-2.335A2.337,2.337,0,0,1,75.214,6.975Z" transform="translate(-70.573)"/></g></g></g></g></svg>