<svg xmlns="http://www.w3.org/2000/svg" width="21" height="21" viewBox="0 0 21 21"><defs><style>.a{fill:#fff;}</style></defs><g transform="translate(0 -0.016)"><g transform="translate(0)"><rect width="21" height="21" rx="2" transform="translate(0 0.016)"/></g><g transform="translate(4.761 5.781)"><rect class="a" transform="translate(4.239 5.235)"/><g transform="translate(0 0)"><path class="a" d="M1.12,57.646q.221.156,1.335.928T4.16,59.762l.277.2q.212.153.352.247t.339.212a1.964,1.964,0,0,0,.374.176,1.032,1.032,0,0,0,.326.059H5.84a1.033,1.033,0,0,0,.326-.059,1.966,1.966,0,0,0,.374-.176q.2-.117.339-.212t.352-.247l.277-.2,3.047-2.116a3.093,3.093,0,0,0,.794-.8,1.719,1.719,0,0,0,.319-.983,1.051,1.051,0,0,0-1.042-1.042H1.042a.93.93,0,0,0-.772.339A1.314,1.314,0,0,0,0,56a1.521,1.521,0,0,0,.358.889A3.232,3.232,0,0,0,1.12,57.646Z" transform="translate(0 -54.82)"/><path class="a" d="M11.016,185q-2.135,1.445-3.242,2.246-.371.273-.6.426a3.719,3.719,0,0,1-.615.312,1.874,1.874,0,0,1-.716.16H5.827a1.874,1.874,0,0,1-.716-.16,3.721,3.721,0,0,1-.615-.312q-.231-.153-.6-.426Q3.015,186.605.658,185A3.449,3.449,0,0,1,0,184.437v5.169a1,1,0,0,0,.306.736,1,1,0,0,0,.736.306h9.584a1.045,1.045,0,0,0,1.042-1.042v-5.169A3.59,3.59,0,0,1,11.016,185Z" transform="translate(0 -181.481)"/></g></g></g></svg>